# xmcd CD database file
#
# Track frame offsets:
#	182
#	10790
#	20220
#	32050
#	44710
#	57695
#	67757
#	78835
#	91825
#	104502
#	115345
#	125525
#	140635
#	151265
#	163857
#
# Disc length: 2353 seconds
#
# Revision: 3
# Processed by: cddbd v1.5.2PL0 Copyright (c) Steve Scherf et al.
# Submitted via: CDex 1.51
#
DISCID=cc092f0f
DTITLE=Jim Reeves - The Very Best of Jim Reeves [CD1]
DYEAR=1996
DGENRE=Oldies
TTITLE0=He'll Have To Go
TTITLE1=Billy Bayou
TTITLE2=May The Good Lord Bless And Keep You
TTITLE3=Roses Are Red
TTITLE4=Have I Told You Lately That I Love You?
TTITLE5=Making Believe
TTITLE6=Someday (You'll Want Me To Want You)
TTITLE7=Distant Drums
TTITLE8=Bimbo
TTITLE9=Welcome To My World
TTITLE10=Is It Really Over?
TTITLE11=Blue Side Of Lonesome
TTITLE12=Am I That Easy To Forget
TTITLE13=I Can't Stop Loving You
TTITLE14=Goodnight Irene
EXTD=YEAR: 1996
EXTT0=
EXTT1=
EXTT2=
EXTT3=
EXTT4=
EXTT5=
EXTT6=
EXTT7=
EXTT8=
EXTT9=
EXTT10=
EXTT11=
EXTT12=
EXTT13=
EXTT14=
PLAYORDER=
